<svg width="1687" height="717" viewBox="0 0 1687 717" fill="none" xmlns="http://www.w3.org/2000/svg">
<path d="M218 12C218.905 12.1766 219.81 12.3532 220.742 12.5352C239.887 16.4158 258.124 23.5403 274 35C273.386 38.912 272.186 41.9942 270.408 45.5247C269.867 46.6054 269.327 47.6861 268.77 48.7996C268.185 49.955 267.599 51.1104 266.996 52.3008C266.392 53.5041 265.788 54.7076 265.184 55.9114C263.6 59.0689 262.008 62.2226 260.415 65.3757C258.789 68.5979 257.169 71.8235 255.549 75.0488C252.373 81.3693 249.189 87.6858 246 94C242.678 94 242.055 93.5696 239.422 91.7539C217.065 77.2894 186.75 73.6054 160.986 78.5891C136.115 83.9498 114.306 96.0222 100.172 117.508C87.9985 136.694 83.0849 158.279 86.6875 180.812C87.0816 182.552 87.5229 184.281 88 186C88.3184 187.155 88.6368 188.31 88.9649 189.5C95.5733 211.217 109.823 231.059 130 242C155.166 255.323 187.144 258.445 214.445 250.268C223.496 247.451 232.308 244.57 240.125 239.066C242 238 242 238 246 238C249.704 245.223 253.391 252.454 257.056 259.697C258.758 263.06 260.466 266.42 262.188 269.772C263.849 273.007 265.494 276.25 267.129 279.498C267.755 280.737 268.388 281.973 269.026 283.206C269.918 284.932 270.788 286.668 271.657 288.405C272.159 289.391 272.66 290.377 273.178 291.393C274 294 274 294 273.243 296.272C271.847 298.213 270.678 299.118 268.605 300.297C267.908 300.694 267.21 301.092 266.491 301.502C265.731 301.914 264.971 302.326 264.188 302.75C263.397 303.183 262.606 303.616 261.791 304.063C255.729 307.285 249.535 309.986 243.125 312.438C241.88 312.914 241.88 312.914 240.61 313.399C207.37 325.599 164.004 328.522 130 318C129.206 317.77 128.412 317.54 127.594 317.303C86.8339 305.462 49.791 277.207 29 240C23.7948 230.22 19.1449 220.179 15.5625 209.688C15.2286 208.723 15.2286 208.723 14.8879 207.739C10.8477 195.138 9.499 182.51 9.6089 169.346C9.62498 167.067 9.60894 164.789 9.58985 162.51C9.54192 129.3 22.5772 97.8521 43 72C44.0055 70.6871 44.0055 70.6871 45.0313 69.3477C62.8522 46.3997 88.187 29.6471 115 19C115.808 18.6767 116.616 18.3534 117.448 18.0203C124.784 15.2093 132.199 13.4363 139.875 11.8125C141.071 11.5528 142.268 11.293 143.5 11.0254C146.665 10.3404 149.831 9.66313 153 9C153.81 8.81373 154.619 8.62746 155.453 8.43555C175.509 5.00572 198.339 8.09372 218 12Z" fill="black"/>
<path d="M196 379C197.475 379.516 197.475 379.516 198.98 380.043C233.838 393.361 261.341 421.564 276.932 455.027C282.627 467.79 286.463 481.097 288 495C288.111 495.982 288.222 496.965 288.336 497.977C290.222 517.3 288.047 536.271 283 555C282.737 556.027 282.474 557.055 282.203 558.113C272.834 591.769 248.145 617.838 220 637C219.089 637.625 218.177 638.25 217.238 638.895C210.552 643.197 203.248 645.69 195.799 648.336C193.549 649.166 191.376 650.144 189.187 651.125C177.272 655.927 163.737 657.622 151 658C149.654 658.077 149.654 658.077 148.281 658.156C138.323 658.5 123.033 658.516 114 654C112.669 653.871 111.335 653.771 110 653.688C105.503 653.222 101.844 651.939 97.7109 650.152C94.802 648.916 91.8518 647.875 88.875 646.812C53.6581 633.223 27.3751 603.773 12 570C11.5926 569.112 11.1853 568.224 10.7656 567.309C-3.51168 533.977 -2.45337 493.197 10.75 459.75C17.8838 442.37 28.0821 427.645 41 414C41.8198 413.116 42.6397 412.231 43.4844 411.32C57.1719 397.025 74.3382 385.674 93 379C93.7399 378.676 94.4798 378.353 95.2422 378.02C126.412 365.024 164.91 367.83 196 379ZM74 434C73.1634 434.642 72.3268 435.284 71.4648 435.945C57.7272 447.397 48.1202 465.173 43 482C42.6571 482.987 42.3142 483.975 41.9609 484.992C33.3864 511.831 39.4411 541.433 51.4687 566C64.6137 589.233 87.0148 608.527 112.812 616.122C123.576 619.086 133.704 620.527 144.875 620.438C146.844 620.428 146.844 620.428 148.853 620.419C158.522 620.263 166.881 619.223 176 616C176.923 615.723 177.846 615.446 178.797 615.16C191.661 611.031 203.953 603.968 214 595C214.816 594.326 215.632 593.652 216.473 592.957C237.209 575.362 248.951 549.51 251.291 522.661C252.274 505.34 251.226 487.331 242.913 471.752C242.048 470.092 241.331 468.358 240.625 466.625C232.329 448.118 217.917 433.749 201 423C200.022 422.361 199.043 421.721 198.035 421.062C159.325 396.953 107.336 405.163 74 434Z" fill="#020202"/>
<path d="M727 143C738.499 152.424 745.734 166.412 748 181C748.272 185.534 748.253 190.057 748.227 194.598C748.226 195.949 748.227 197.3 748.228 198.651C748.229 202.293 748.217 205.935 748.203 209.577C748.19 213.392 748.189 217.208 748.187 221.024C748.181 228.238 748.164 235.452 748.144 242.666C748.117 252.422 748.107 262.178 748.095 271.935C748.076 287.29 748.036 302.645 748 318C726.55 318 705.1 318 683 318C682.986 309.838 682.972 301.675 682.957 293.266C682.934 287.419 682.909 281.573 682.878 275.727C682.84 268.164 682.808 260.601 682.804 253.039C682.801 246.405 682.772 239.773 682.727 233.139C682.714 230.615 682.709 228.091 682.714 225.566C682.719 222.017 682.693 218.468 682.659 214.919C682.668 213.887 682.677 212.855 682.686 211.791C682.506 200.244 677.898 190.361 670 182C663.344 176.118 654.159 174.646 645.5 174.937C635.24 176.058 625.754 181.248 619.195 189.184C612.335 198.307 610.551 207.058 610.568 218.325C610.557 219.409 610.547 220.493 610.537 221.61C610.507 225.159 610.497 228.708 610.488 232.258C610.471 234.732 610.453 237.207 610.434 239.681C610.387 246.168 610.357 252.655 610.33 259.142C610.295 266.939 610.238 274.736 610.185 282.533C610.107 294.355 610.056 306.177 610 318C588.55 318 567.1 318 545 318C545 255.63 545 193.26 545 129C566.45 129 587.9 129 610 129C610 135.27 610 141.54 610 148C612.083 146.329 614.166 144.659 616.312 142.937C650.197 116.254 692.33 116.878 727 143Z" fill="black"/>
<path d="M967 129C988.45 129 1009.9 129 1032 129C1032.05 136.368 1032.1 143.737 1032.15 151.328C1032.18 156.013 1032.22 160.698 1032.26 165.383C1032.32 172.809 1032.38 180.235 1032.42 187.661C1032.46 193.652 1032.51 199.643 1032.56 205.635C1032.58 207.913 1032.59 210.192 1032.6 212.471C1032.36 237.662 1032.36 237.662 1042.19 260.438C1052.19 269.548 1064.11 269.523 1077 269C1085.06 268.181 1091.04 264.958 1096.75 259.25C1105.42 246.721 1106.11 231.667 1106.21 216.869C1106.22 215.911 1106.23 214.954 1106.24 213.968C1106.27 210.84 1106.29 207.713 1106.32 204.586C1106.34 202.403 1106.36 200.22 1106.38 198.037C1106.43 192.32 1106.48 186.602 1106.53 180.884C1106.59 174.009 1106.66 167.134 1106.72 160.259C1106.82 149.839 1106.91 139.42 1107 129C1128.45 129 1149.9 129 1172 129C1172.16 158.145 1172.16 158.145 1172.2 172.685C1172.22 180.506 1172.25 188.326 1172.3 196.146C1172.34 202.344 1172.37 208.542 1172.38 214.74C1172.38 218.012 1172.4 221.284 1172.42 224.556C1172.64 252.006 1170.39 278.977 1150.93 300.164C1137.21 313.217 1117.54 319.876 1099 322C1098.31 322.086 1097.62 322.172 1096.91 322.261C1088.12 323.225 1079.31 323.186 1070.48 323.185C1067.77 323.187 1065.06 323.206 1062.36 323.225C1035.88 323.314 1007.84 319.058 987.937 300.136C983.91 296.11 980.746 291.971 978 287C977.49 286.132 976.979 285.265 976.453 284.371C971.873 276.039 969.656 267.3 968 258C967.829 257.048 967.659 256.095 967.483 255.114C966.732 249.766 966.869 244.396 966.887 239.006C966.886 237.815 966.886 236.624 966.886 235.397C966.887 232.15 966.892 228.902 966.899 225.655C966.905 222.254 966.906 218.854 966.907 215.453C966.91 209.022 966.918 202.59 966.928 196.159C966.94 188.115 966.946 180.07 966.951 172.025C966.961 157.684 966.981 143.342 967 129Z" fill="black"/>
<path d="M1333 58C1354.45 58 1375.9 58 1398 58C1398 81.43 1398 104.86 1398 129C1411.2 129 1424.4 129 1438 129C1438 145.17 1438 161.34 1438 178C1424.8 178 1411.6 178 1398 178C1398.06 189.769 1398.06 189.769 1398.16 201.537C1398.21 206.347 1398.25 211.157 1398.27 215.967C1398.29 219.851 1398.32 223.734 1398.37 227.618C1398.38 229.089 1398.39 230.561 1398.39 232.032C1398.4 241.289 1398.76 250.569 1403 259C1407.22 262.854 1409.92 264.332 1415.7 264.301C1419.14 263.85 1421.95 262.44 1425.02 260.875C1427 260 1427 260 1430 260C1433.95 271.624 1437.78 283.283 1441.44 295C1441.79 296.115 1442.15 297.23 1442.51 298.378C1442.84 299.429 1443.16 300.48 1443.5 301.562C1443.79 302.492 1444.08 303.421 1444.38 304.379C1445 307.019 1445.12 309.298 1445 312C1426.15 323.885 1399.64 326.391 1378.03 321.871C1364.63 318.5 1353.17 311.475 1345.31 300C1339.5 290.168 1336 279.942 1334.35 268.681C1334.22 267.814 1334.09 266.948 1333.96 266.055C1332.71 256.874 1332.62 247.797 1332.71 238.547C1332.71 236.782 1332.72 235.017 1332.72 233.252C1332.73 228.682 1332.76 224.112 1332.79 219.542C1332.83 214.848 1332.84 210.155 1332.85 205.461C1332.89 196.307 1332.94 187.154 1333 178C1324.09 178 1315.18 178 1306 178C1306 161.83 1306 145.66 1306 129C1314.91 129 1323.82 129 1333 129C1333 105.57 1333 82.14 1333 58Z" fill="black"/>
<path d="M934 137C933.386 142.114 931.052 146.276 928.746 150.801C928.116 152.055 928.116 152.055 927.472 153.335C926.133 155.997 924.785 158.655 923.438 161.313C922.526 163.12 921.615 164.928 920.705 166.736C918.476 171.161 916.24 175.581 914 180C909.206 179.281 905.069 177.953 900.625 176.063C888.138 170.937 869.771 166.059 856.707 171.328C853.783 172.875 853.783 172.875 852 176C851.362 181.61 851.362 181.61 853.633 186.57C856.361 189.371 858.639 190.522 862.25 192C862.86 192.251 863.47 192.501 864.098 192.76C869.271 194.833 874.552 196.494 879.882 198.108C899.888 204.187 919.952 212.882 931.5 231.406C939.364 246.197 940.05 262.646 936.031 278.758C931.737 292.257 923.088 303.5 911 311C892.475 320.421 873.317 323.413 852.812 323.312C852.04 323.311 851.268 323.309 850.473 323.307C823.534 323.2 796.563 317.586 776 299C776.562 294.3 778.664 290.763 781.078 286.793C781.487 286.109 781.895 285.425 782.316 284.72C783.62 282.538 784.935 280.363 786.25 278.188C787.119 276.737 787.988 275.286 788.855 273.834C792.84 267.182 796.874 260.566 801 254C804.091 255.511 806.887 257.213 809.75 259.125C816.873 263.689 824.336 267.44 832 271C832.824 271.387 833.647 271.773 834.496 272.172C842.814 275.505 853.778 275.343 862 272C865.586 269.51 865.586 269.51 868 266C868.36 260.515 868.427 257.526 865 253C862.352 251.156 862.352 251.156 859.125 249.688C858.523 249.395 857.921 249.102 857.3 248.8C852.751 246.653 848.096 244.887 843.372 243.166C826.893 237.16 813.318 229.585 801 217C800.303 216.346 799.605 215.693 798.887 215.02C790.294 206.39 788.54 195.484 788.5 183.813C788.622 176.226 788.954 169.05 792 162C792.367 161.118 792.735 160.237 793.113 159.328C800.336 144.244 813.989 134.951 829.062 128.75C863.885 117.445 901.183 121.866 934 137Z" fill="#010101"/>
<path d="M1212 0C1233.78 0 1255.56 0 1278 0C1278 104.94 1278 209.88 1278 318C1256.22 318 1234.44 318 1212 318C1212 213.06 1212 108.12 1212 0Z" fill="#030303"/>
<path d="M1005.22 445.377C1007.16 446.902 1009.09 448.444 1011 450C1011.82 450.663 1011.82 450.663 1012.66 451.339C1028.57 464.389 1041.11 482.641 1048 502C1022.4 504.694 1022.4 504.694 1015.56 500.509C1011.77 496.649 1009.43 491.983 1007.1 487.141C998.366 470.169 976.144 458.565 958.722 452.771C938.803 446.448 914.773 444.219 895 452C894.346 452.252 893.693 452.504 893.02 452.764C878.38 458.49 864.901 466.54 854 478C853.43 478.514 852.86 479.029 852.273 479.559C836.346 494.312 825.415 517.45 824 539C823.86 543.404 823.814 547.804 823.815 552.209C823.813 554.232 823.794 556.255 823.775 558.277C823.758 570.167 824.826 581.295 829.125 592.438C829.433 593.245 829.741 594.053 830.058 594.885C840.09 620.405 859.969 641.022 884.688 652.816C909.956 663.681 938.351 664.286 964 654.188C985.974 644.672 1005.2 629.063 1016.72 607.828C1019 605 1019 605 1022.12 604.319C1023.31 604.35 1024.5 604.382 1025.73 604.414C1027.03 604.433 1028.33 604.453 1029.66 604.473C1031.02 604.523 1032.39 604.574 1033.75 604.625C1035.13 604.655 1036.51 604.682 1037.89 604.707C1041.26 604.778 1044.63 604.876 1048 605C1044.35 626.966 1023.78 649.429 1006.71 662.629C1003.54 664.889 1000.33 666.974 997 669C996.396 669.373 995.792 669.746 995.17 670.131C980.849 678.9 965.653 685.366 949 688C947.277 688.273 947.277 688.273 945.52 688.551C912.378 692.496 878.89 686.682 851.883 666.289C820.832 641.634 800.014 610.354 795.316 570.441C794.02 554.816 794.162 539.236 798 524C798.255 522.813 798.51 521.626 798.773 520.402C803.947 498.214 815.587 477.63 831 461C831.5 460.456 832 459.912 832.516 459.352C877.646 410.802 952.737 405.063 1005.22 445.377Z" fill="#020202"/>
<path d="M1089 422C1140.81 422 1192.62 422 1246 422C1246 430.58 1246 439.16 1246 448C1203.43 448 1160.86 448 1117 448C1117 478.69 1117 509.38 1117 541C1158.25 541 1199.5 541 1242 541C1242 549.58 1242 558.16 1242 567C1200.75 567 1159.5 567 1117 567C1117 597.69 1117 628.38 1117 660C1159.57 660 1202.14 660 1246 660C1246 668.58 1246 677.16 1246 686C1194.19 686 1142.38 686 1089 686C1089 598.88 1089 511.76 1089 422Z" fill="#060606"/>
<path d="M558 422C566.91 422 575.82 422 585 422C585.009 425.508 585.009 425.508 585.018 429.088C585.074 451.143 585.148 473.199 585.236 495.254C585.281 506.593 585.32 517.931 585.346 529.27C585.369 539.156 585.403 549.043 585.449 558.93C585.473 564.161 585.491 569.392 585.498 574.623C585.504 579.556 585.524 584.488 585.554 589.42C585.563 591.222 585.567 593.024 585.565 594.826C585.553 612.774 587.856 629.426 600.82 642.977C618.247 659.154 639.869 661.606 662.52 661.098C681.818 660.338 699.41 655.246 713 641C724.934 627.343 726.449 612.566 726.432 595.126C726.441 593.233 726.452 591.34 726.463 589.447C726.491 584.336 726.5 579.225 726.506 574.114C726.516 568.762 726.542 563.411 726.566 558.059C726.61 547.937 726.638 537.816 726.661 527.694C726.689 516.166 726.732 504.637 726.778 493.109C726.87 469.406 726.942 445.703 727 422C736.24 422 745.48 422 755 422C755.046 445.732 755.082 469.463 755.104 493.195C755.114 504.215 755.128 515.235 755.151 526.255C755.171 535.866 755.184 545.476 755.188 555.087C755.191 560.17 755.197 565.254 755.211 570.338C755.225 575.134 755.229 579.93 755.226 584.726C755.227 586.475 755.231 588.225 755.238 589.975C755.296 603.583 754.927 617.16 750.312 630.125C750.05 630.878 749.787 631.631 749.516 632.407C744.932 645.107 738.503 654.606 729 664C727.904 665.112 727.904 665.112 726.785 666.246C704.988 687.069 674.797 689.572 646.208 689.089C619.294 688.343 596.329 677.761 577.637 658.574C561.401 639.817 557.505 615.757 557.659 591.834C557.66 589.97 557.66 588.105 557.658 586.241C557.657 581.231 557.675 576.222 557.696 571.213C557.715 565.959 557.716 560.704 557.72 555.45C557.729 545.523 557.754 535.597 557.784 525.67C557.818 514.359 557.834 503.049 557.849 491.738C557.88 468.492 557.934 445.246 558 422Z" fill="#040404"/>
<path fill-rule="evenodd" clip-rule="evenodd" d="M1433.19 432.319C1416.87 422 1394.03 422 1304 422V686H1331V582L1363 583C1363.35 583.473 1363.71 583.945 1364.06 584.417C1366.47 587.627 1368.88 590.836 1371.21 594.105C1376.31 601.367 1381.6 608.458 1387 615.5L1387.31 615.905C1391.23 621.018 1395.15 626.126 1398.87 631.387C1403.43 637.879 1408.17 644.204 1413 650.5C1417.58 656.473 1422.12 662.459 1426.44 668.625L1428.5 671.602C1429.35 672.722 1430.18 673.857 1431 675C1432.82 678.134 1434.69 680.929 1436.99 683.727C1438.7 685.016 1439.84 685.877 1441.11 686.423C1443.66 687.517 1446.76 687.345 1456.06 686.83C1457.74 686.734 1459.43 686.659 1461.11 686.604C1466.08 686.472 1471.04 686.274 1476 686C1472.55 680.674 1468.96 675.522 1465.05 670.521L1463.31 668.312C1461.46 665.942 1459.6 663.572 1457.74 661.206C1456.66 659.839 1455.58 658.471 1454.51 657.103C1453.17 655.402 1451.84 653.701 1450.5 652C1444.57 644.468 1438.69 636.901 1432.81 629.332C1424.79 619.009 1416.77 608.686 1408.69 598.414C1406.23 595.294 1403.78 592.171 1401.32 589.048L1398.35 585.265L1395 581C1413.07 581.317 1431.75 574.597 1445.01 562.02L1447 560C1462.47 544.714 1471.82 526.564 1472.61 504.496C1472.74 482.495 1465.52 462.705 1449.95 446.828C1443.53 440.529 1438.74 435.827 1433.19 432.319ZM1364 447.75L1331 448V555L1366 555.125L1367.6 555.133C1372.23 555.156 1376.86 555.18 1381.48 555.189C1382.22 555.19 1382.96 555.191 1383.7 555.192C1384.37 555.193 1385.03 555.194 1385.69 555.195C1389.97 555.225 1394.25 555.231 1398.54 555.175C1411.89 554.499 1422.58 547.809 1431.62 538.375C1442.92 525.389 1445.94 510.665 1445 494C1442.88 480.703 1437.89 468.117 1427.14 459.555L1425 458C1413.14 449.15 1399.03 447.371 1384.65 447.578C1383.29 447.598 1381.93 447.612 1380.56 447.618C1379.92 447.619 1379.49 447.62 1379.05 447.621C1378.12 447.623 1377.2 447.627 1374.32 447.64L1364 447.75Z" fill="#020202"/>
<path fill-rule="evenodd" clip-rule="evenodd" d="M1624.59 425.346C1614.23 422 1602.78 422 1514 422V686H1542V581L1573 582C1573.52 582.718 1574.04 583.437 1574.57 584.155C1578.1 589.023 1581.64 593.882 1585.26 598.688C1589.56 604.393 1593.84 610.122 1598.07 615.881C1602.89 622.439 1607.72 628.983 1612.61 635.49L1612.76 635.685C1617.04 641.384 1621.33 647.082 1625.57 652.816C1626.73 654.401 1627.89 655.983 1629.06 657.562C1629.31 657.884 1629.56 658.206 1629.81 658.526C1632.57 662.106 1635.3 665.628 1637.38 669.677C1639.99 675.131 1642.6 680.309 1647.1 684.441C1649.2 685.573 1650.79 686.422 1652.46 687.014C1657.51 688.802 1663.38 688.243 1687 686C1687 685.648 1687 685.42 1686.95 685.203C1686.86 684.805 1686.6 684.445 1685.86 683.426L1684.19 681.312L1682.23 678.828C1681.12 677.412 1680 675.995 1678.88 674.577C1678.02 673.477 1677.15 672.377 1676.28 671.276L1674.94 669.562C1671.21 664.822 1667.49 660.07 1663.79 655.308L1663.42 654.834C1659.23 649.438 1655.04 644.043 1650.82 638.673C1645.06 631.357 1639.33 624.013 1633.62 616.66C1631.81 614.323 1629.99 611.987 1628.17 609.652C1620.75 600.123 1613.35 590.584 1606 581C1626.29 581.193 1644.75 572.511 1659.4 558.617C1673.99 543.919 1682 525.613 1682.41 504.909L1682.44 501.312C1682.53 491.08 1681.2 482.078 1677.71 472.441C1668.16 451.861 1653.09 436.316 1631.83 427.983L1629.38 427.062C1627.64 426.41 1626.13 425.841 1624.59 425.346ZM1575.75 447.812L1542 448V555L1577.38 555.188L1579 555.2C1583.67 555.235 1588.34 555.27 1593.01 555.284C1593.71 555.285 1594.4 555.286 1595.09 555.287C1595.82 555.289 1596.55 555.291 1597.27 555.293C1613.21 555.46 1626.42 553.685 1638.77 542.484C1649.24 531.481 1655.37 519.219 1655.36 503.932L1655.31 500.812C1655.36 486.36 1651.44 473.278 1641.38 462.562C1628.53 450.733 1613.87 447.506 1596.89 447.683C1595.49 447.699 1594.09 447.709 1592.7 447.714C1592.05 447.714 1591.6 447.715 1591.16 447.716C1590.22 447.718 1589.28 447.72 1586.33 447.73L1575.75 447.812Z" fill="#040404"/>
<path d="M484 422C493.24 422 502.48 422 512 422C512.07 448.878 512.123 475.756 512.156 502.634C512.171 515.115 512.192 527.596 512.226 540.077C512.256 550.959 512.276 561.841 512.282 572.724C512.286 578.482 512.295 584.241 512.317 589.999C512.338 595.428 512.344 600.856 512.339 606.285C512.34 608.269 512.346 610.253 512.358 612.237C512.473 632.967 509.47 653.087 495.043 669.184C477.301 686.07 453.657 690.729 429.949 690.254C418.637 689.817 403.461 688.238 395 680C394.546 676.997 394.546 676.997 394.609 673.363C394.622 672.065 394.635 670.766 394.648 669.428C394.682 668.056 394.716 666.684 394.75 665.312C394.77 663.929 394.788 662.546 394.805 661.162C394.852 657.774 394.918 654.387 395 651C395.6 651.3 396.2 651.601 396.818 651.91C408.456 657.784 408.456 657.784 421 661C422.299 661.206 423.599 661.412 424.938 661.625C437.142 662.76 448.614 663.086 460 658C460.893 657.626 461.787 657.252 462.707 656.867C473.194 652.119 477.911 645.613 482 635C483.267 631.198 483.153 627.629 483.158 623.667C483.163 622.807 483.168 621.947 483.173 621.06C483.189 618.168 483.197 615.275 483.205 612.382C483.215 610.313 483.225 608.243 483.235 606.174C483.262 600.546 483.283 594.918 483.303 589.291C483.325 583.413 483.353 577.535 483.379 571.658C483.429 560.523 483.474 549.388 483.517 538.254C483.567 525.579 483.622 512.904 483.677 500.23C483.791 474.153 483.898 448.077 484 422Z" fill="#060606"/>
<path d="M274 601C278.475 601.418 280.968 604.546 283.958 607.57C284.544 608.151 285.13 608.732 285.734 609.33C287.671 611.254 289.598 613.189 291.523 615.125C292.871 616.47 294.218 617.815 295.566 619.159C298.394 621.982 301.216 624.811 304.034 627.643C307.631 631.257 311.24 634.856 314.854 638.452C317.643 641.23 320.424 644.015 323.203 646.802C324.53 648.131 325.859 649.458 327.191 650.782C347.167 670.676 347.167 670.676 347.438 684.75C347.329 691.646 345.836 696.317 342 702C341.577 702.646 341.154 703.292 340.719 703.957C336.642 709.396 331.008 712.075 325 715C324.01 715.495 324.01 715.495 323 716C309.917 717.06 301.876 714.262 292 706C287.218 701.619 282.652 697.007 278.059 692.43C276.722 691.103 275.386 689.776 274.05 688.449C271.265 685.68 268.485 682.907 265.707 680.132C262.141 676.572 258.559 673.027 254.972 669.487C252.215 666.759 249.468 664.019 246.725 661.277C245.408 659.964 244.087 658.656 242.762 657.351C240.918 655.535 239.091 653.703 237.267 651.867C236.715 651.329 236.163 650.792 235.594 650.239C234.104 648.718 234.104 648.718 232 646C232.041 643.743 232.041 643.743 233 642C235.082 640.246 235.082 640.246 237.812 638.438C252.026 628.49 264.566 615.553 274 601Z" fill="#030303"/>
<path fill-rule="evenodd" clip-rule="evenodd" d="M481.609 151.148L479 149C435.536 112.863 360.182 112.387 318.625 152.336L316 155C307.388 163.689 300.387 172.638 295.175 183.786L294.25 185.812C289.283 196.432 287.633 207.658 287.639 219.309L287.688 223.125C287.65 237.682 289.193 250.542 295 264C307.151 288.601 327.814 307.316 353.683 316.54L355.937 317.312C368.986 321.827 382.011 323.415 395.732 323.361C398.284 323.336 400.835 323.313 403.386 323.316L404.039 323.317C412.318 323.34 420.487 323.362 428.622 321.595L431 321C455.373 315.057 476.299 303.982 493 285C511.672 263.246 515.933 236.898 514 209C510.695 185.818 499.29 166.358 481.609 151.148ZM444.078 211.297C439.528 197.383 431.591 188.973 418.625 182.25C398.899 175.448 377.795 179.154 364.625 196.25C356.615 208.249 355.355 220.582 357.391 234.711C360.386 245.963 365.798 254.404 375.187 261.312C387.163 268.687 400.755 269.641 414.305 266.816C425.427 263.447 433.543 256.258 439.644 246.559C445.353 235.783 447.034 223.172 444.078 211.297Z" fill="black"/>
<path fill-rule="evenodd" clip-rule="evenodd" d="M1609 145C1607.46 143.566 1605.91 142.146 1604.31 140.781C1573.07 116.677 1527.32 116.51 1495.21 138.664C1473.29 154.611 1459.24 178.948 1454.69 205.531C1450.44 235.113 1457.14 263.65 1474.56 287.902C1489 306.23 1509.62 319.899 1533 323C1562.48 324.95 1585.16 319.583 1607.75 299.938L1611 297V318H1676V129H1610L1609 145ZM1612.28 218.648C1610.98 206.416 1605.83 196.589 1596.34 188.75C1581.25 177.482 1560.44 174.938 1544 185C1534.14 191.215 1526.65 200.518 1524 212C1522.57 227.47 1523.74 241.402 1533.6 254.051C1541.8 262.791 1552.28 267.422 1564.18 268.211C1577.11 268.372 1588.52 265.924 1598.25 256.922C1608.27 246.086 1612.8 233.522 1612.28 218.648Z" fill="#010101"/>
<path d="M79.9999 500C91.2317 505.505 95.8777 514.674 99.9999 526C100.654 528.018 101.3 530.039 101.937 532.062C105.17 541.968 110.421 550.008 117 558C117.639 558.866 118.279 559.732 118.937 560.625C127.787 570.815 140.019 577.837 151.331 584.994C158.047 589.253 158.047 589.253 160 591C160 591.99 160 592.98 160 594C152.895 597.553 140.297 595.148 133.047 593.031C106.63 584.09 86.3719 569.774 73.735 544.264C68.6036 533.295 64.5467 519.884 67.5429 507.812C69.8828 501.607 73.3815 498.876 79.9999 500Z" fill="#050505"/>
</svg>
