<svg width="15" height="15" viewBox="0 0 15 15" fill="none" xmlns="http://www.w3.org/2000/svg">
<path d="M12.1101 6.05503C12.1101 7.39121 11.6763 8.62551 10.9456 9.62691L14.631 13.3152C14.9949 13.6791 14.9949 14.2701 14.631 14.634C14.2672 14.9978 13.6762 14.9978 13.3123 14.634L9.62691 10.9456C8.62551 11.6792 7.39121 12.1101 6.05503 12.1101C2.71021 12.1101 0 9.39985 0 6.05503C0 2.71021 2.71021 0 6.05503 0C9.39985 0 12.1101 2.71021 12.1101 6.05503ZM6.05503 10.247C6.60552 10.247 7.15063 10.1385 7.65922 9.92788C8.16781 9.71721 8.62992 9.40844 9.01918 9.01918C9.40844 8.62992 9.71722 8.16781 9.92788 7.65922C10.1385 7.15063 10.247 6.60552 10.247 6.05503C10.247 5.50454 10.1385 4.95943 9.92788 4.45084C9.71722 3.94225 9.40844 3.48014 9.01918 3.09088C8.62992 2.70162 8.16781 2.39284 7.65922 2.18218C7.15063 1.97151 6.60552 1.86309 6.05503 1.86309C5.50454 1.86309 4.95943 1.97151 4.45084 2.18218C3.94225 2.39284 3.48014 2.70162 3.09088 3.09088C2.70162 3.48014 2.39284 3.94225 2.18218 4.45084C1.97151 4.95943 1.86309 5.50454 1.86309 6.05503C1.86309 6.60552 1.97151 7.15063 2.18218 7.65922C2.39284 8.16781 2.70162 8.62992 3.09088 9.01918C3.48014 9.40844 3.94225 9.71721 4.45084 9.92788C4.95943 10.1385 5.50454 10.247 6.05503 10.247Z" fill="#41464D"/>
</svg>
