<svg width="15" height="15" viewBox="0 0 15 15" fill="none" xmlns="http://www.w3.org/2000/svg">
<path d="M8.45755 0.415532C8.52136 0.437861 8.52136 0.437861 8.58645 0.46064C10.094 1.03664 11.2835 2.25641 11.9578 3.70368C12.2041 4.25566 12.3701 4.83119 12.4365 5.43251C12.4413 5.47499 12.4461 5.51747 12.4511 5.56124C12.5326 6.397 12.4386 7.21749 12.2203 8.0275C12.2089 8.07193 12.1975 8.11637 12.1858 8.16215C11.7806 9.61774 10.7128 10.7452 9.49554 11.574C9.45613 11.601 9.41671 11.6281 9.3761 11.6559C9.08692 11.842 8.77103 11.9498 8.44887 12.0643C8.35154 12.1002 8.25755 12.1425 8.16291 12.1849C7.64759 12.3926 7.0622 12.4659 6.51131 12.4822C6.4531 12.4856 6.4531 12.4856 6.39372 12.489C5.96305 12.5038 5.30172 12.5046 4.91106 12.3092C4.85349 12.3036 4.79579 12.2993 4.73806 12.2957C4.54357 12.2756 4.3853 12.2201 4.20657 12.1428C4.08075 12.0893 3.95316 12.0443 3.82441 11.9984C2.30129 11.4106 1.16456 10.1369 0.499584 8.67624C0.481967 8.63783 0.464349 8.59942 0.446198 8.55984C-0.171292 7.11824 -0.12552 5.35452 0.445522 3.90795C0.75406 3.15628 1.19513 2.51942 1.75383 1.92928C1.78929 1.89103 1.82474 1.85278 1.86128 1.81338C2.45326 1.19512 3.1957 0.704179 4.00282 0.415532C4.03482 0.401538 4.06682 0.387545 4.09979 0.373127C5.44789 -0.188938 7.1129 -0.0675847 8.45755 0.415532ZM3.18107 2.79427C3.14489 2.82204 3.10871 2.8498 3.07143 2.87841C2.47728 3.37369 2.06178 4.1425 1.84033 4.87026C1.8255 4.91297 1.81067 4.95567 1.79539 4.99967C1.42454 6.16045 1.68641 7.44073 2.2066 8.50325C2.77512 9.50806 3.74396 10.3425 4.85969 10.671C5.32523 10.7992 5.76324 10.8615 6.2464 10.8577C6.33156 10.8573 6.33156 10.8573 6.41844 10.8569C6.83662 10.8501 7.19816 10.8051 7.59255 10.6657C7.63247 10.6537 7.67239 10.6418 7.71352 10.6294C8.26991 10.4508 8.80151 10.1453 9.23604 9.75749C9.27133 9.72833 9.30663 9.69917 9.34299 9.66913C10.2398 8.90813 10.7477 7.79005 10.8489 6.62883C10.8914 5.8797 10.8461 5.10084 10.4865 4.42705C10.4491 4.35526 10.4181 4.28025 10.3876 4.2053C10.0288 3.40486 9.40545 2.7834 8.6738 2.31852C8.63148 2.29087 8.58917 2.26322 8.54557 2.23473C6.87138 1.19201 4.62283 1.54709 3.18107 2.79427Z" fill="#2E6BC6"/>
<path d="M11.831 10.017C12.0246 10.0351 12.1324 10.1704 12.2617 10.3012C12.2871 10.3263 12.3124 10.3514 12.3385 10.3773C12.4223 10.4605 12.5056 10.5442 12.5889 10.6279C12.6472 10.6861 12.7054 10.7442 12.7637 10.8024C12.886 10.9245 13.0081 11.0468 13.13 11.1693C13.2855 11.3256 13.4417 11.4813 13.598 11.6368C13.7186 11.7569 13.8389 11.8774 13.9591 11.9979C14.0164 12.0554 14.0739 12.1128 14.1315 12.1701C14.9955 13.0305 14.9955 13.0305 15.0072 13.6392C15.0025 13.9374 14.9379 14.1394 14.772 14.3852C14.7537 14.4132 14.7354 14.4411 14.7166 14.4699C14.5403 14.7051 14.2966 14.821 14.0368 14.9475C13.9939 14.9689 13.9939 14.9689 13.9503 14.9907C13.3844 15.0366 13.0367 14.9155 12.6095 14.5582C12.4027 14.3687 12.2052 14.1693 12.0066 13.9713C11.9488 13.9139 11.891 13.8565 11.8332 13.7991C11.7127 13.6794 11.5925 13.5595 11.4723 13.4395C11.3181 13.2855 11.1632 13.1322 11.0081 12.979C10.8888 12.861 10.77 12.7426 10.6514 12.624C10.5944 12.5672 10.5373 12.5106 10.48 12.4542C10.4002 12.3756 10.3212 12.2964 10.2423 12.217C10.2185 12.1937 10.1946 12.1705 10.17 12.1466C10.1055 12.0808 10.1055 12.0808 10.0145 11.9632C10.0163 11.8656 10.0163 11.8656 10.0578 11.7902C10.1478 11.7144 10.1478 11.7144 10.2659 11.6362C10.8806 11.2059 11.423 10.6464 11.831 10.017Z" fill="#2E6BC6"/>
<path d="M3.44058 5.64876C3.92635 5.88685 4.12729 6.28343 4.30557 6.77325C4.33385 6.86054 4.36179 6.94794 4.38937 7.03545C4.52919 7.46388 4.75628 7.81158 5.04082 8.15724C5.06847 8.19471 5.09612 8.23218 5.12462 8.27078C5.50736 8.71151 6.03639 9.01518 6.52561 9.32472C6.81611 9.50892 6.81611 9.50892 6.90056 9.58449C6.90056 9.62731 6.90056 9.67012 6.90056 9.71424C6.59325 9.86789 6.04843 9.76387 5.73484 9.67234C4.59232 9.28564 3.71616 8.66649 3.16962 7.56315C2.94769 7.08876 2.77223 6.50872 2.90181 5.98665C3.00301 5.71828 3.15433 5.60015 3.44058 5.64876Z" fill="#2E6BC6"/>
</svg>
